<?xml version="1.0" standalone="no"?>
<!DOCTYPE svg PUBLIC "-//W3C//DTD SVG 20010904//EN"
 "http://www.w3.org/TR/2001/REC-SVG-20010904/DTD/svg10.dtd">
<svg version="1.0" xmlns="http://www.w3.org/2000/svg"
 width="1080.000000pt" height="1080.000000pt" viewBox="0 0 1080.000000 1080.000000"
 preserveAspectRatio="xMidYMid meet">

<g transform="translate(0.000000,1080.000000) scale(0.100000,-0.100000)"
fill="#000000" stroke="none">
<path d="M5402 8821 c-34 -12 -70 -34 -98 -62 l-44 -43 0 32 c0 18 -6 35 -14
38 -7 3 -46 -1 -87 -9 -63 -11 -74 -17 -72 -33 3 -49 96 -590 102 -596 3 -3
43 0 89 9 70 13 82 18 82 35 0 11 -11 88 -25 170 -27 160 -26 201 8 244 23 29
90 63 125 64 12 0 22 5 22 12 0 25 -23 143 -29 150 -3 4 -30 -1 -59 -11z"/>
<path d="M6671 8506 c-301 -301 -314 -315 -290 -325 13 -6 53 -22 89 -36 l65
-26 65 71 65 70 175 -68 175 -68 5 -95 c6 -107 -4 -95 124 -143 l69 -26 -6 97
c-4 54 -14 251 -22 438 -9 187 -20 346 -23 353 -7 13 -145 72 -167 72 -6 0
-152 -141 -324 -314z m344 -224 c-3 -4 -218 79 -228 88 -4 4 43 60 105 125
l113 118 7 -164 c3 -90 5 -165 3 -167z"/>
<path d="M4639 8637 c-100 -28 -191 -105 -232 -196 -16 -34 -21 -66 -21 -121
1 -131 67 -239 179 -292 144 -68 363 -11 462 120 18 24 33 50 33 58 0 18 -123
81 -128 65 -10 -30 -61 -76 -107 -97 -82 -38 -160 -29 -209 25 -18 20 -18 21
0 28 11 3 109 41 219 84 223 86 214 78 174 164 -27 58 -92 123 -149 148 -55
25 -159 31 -221 14z m138 -146 c50 -23 72 -56 46 -69 -47 -24 -265 -103 -270
-99 -3 4 -2 27 1 52 11 72 82 131 161 134 11 0 39 -8 62 -18z"/>
<path d="M7420 8169 c-122 -188 -218 -345 -213 -349 4 -4 39 -28 77 -53 l70
-46 22 32 c22 33 404 622 417 644 5 8 -19 30 -67 63 -41 27 -77 50 -80 50 -2
0 -104 -154 -226 -341z"/>
<path d="M5942 8407 c-88 -51 -67 -194 33 -213 104 -19 178 108 107 187 -32
36 -101 49 -140 26z"/>
<path d="M4010 8311 c-102 -33 -209 -139 -210 -208 -1 -15 -5 -13 -24 9 l-24
26 -70 -50 -70 -50 82 -117 c46 -64 156 -219 246 -346 89 -126 164 -232 166
-234 4 -5 137 93 141 104 2 6 -32 60 -76 120 l-79 110 57 6 c100 10 194 78
242 175 36 74 34 188 -4 266 -34 69 -99 138 -158 169 -47 24 -172 36 -219 20z
m118 -175 c35 -18 75 -62 97 -105 22 -44 16 -118 -13 -158 -44 -61 -141 -83
-205 -46 -45 27 -94 95 -102 143 -19 115 121 219 223 166z"/>
<path d="M7998 7739 c-170 -143 -308 -263 -308 -267 0 -5 90 -115 200 -245
224 -264 196 -247 277 -177 l41 35 -105 125 c-57 69 -122 146 -144 171 l-39
47 74 60 73 61 122 -145 122 -145 23 18 c48 38 86 72 86 77 0 2 -54 69 -120
148 l-121 143 33 28 c18 15 49 41 69 57 l36 29 138 -164 138 -165 39 33 c22
17 49 39 60 48 19 15 13 24 -179 252 -109 130 -200 236 -203 236 -3 0 -143
-117 -312 -260z"/>
<path d="M3392 7769 c-75 -29 -164 -115 -204 -197 -28 -56 -33 -76 -33 -141 0
-58 6 -88 23 -126 31 -69 102 -138 175 -170 158 -71 357 15 444 192 24 50 28
70 28 143 0 69 -4 94 -23 133 -31 61 -98 129 -159 158 -67 33 -178 37 -251 8z
m186 -186 c110 -89 111 -207 2 -281 -49 -34 -125 -27 -177 14 -63 51 -78 79
-78 143 0 48 5 64 29 95 37 49 78 67 139 63 34 -3 58 -12 85 -34z"/>
<path d="M2701 7279 c-23 -39 -41 -74 -41 -78 0 -8 729 -426 744 -426 9 0 100
145 94 150 -12 11 -741 425 -748 425 -4 0 -27 -32 -49 -71z"/>
<path d="M8393 7088 c-163 -78 -273 -136 -273 -145 0 -7 16 -45 35 -83 l35
-70 53 24 c28 13 102 48 162 77 126 60 184 68 233 32 61 -46 83 -132 47 -187
-14 -20 -68 -52 -197 -115 l-178 -86 39 -82 40 -82 192 92 c258 124 299 165
299 299 -1 101 -53 195 -137 248 -44 28 -44 29 -21 41 13 6 25 13 27 15 7 6
-64 154 -74 153 -5 0 -133 -59 -282 -131z"/>
<path d="M2868 6847 c-56 -16 -121 -59 -154 -102 -82 -108 -104 -257 -53 -366
33 -71 87 -125 158 -158 47 -22 70 -26 141 -26 75 0 91 3 138 29 65 37 113 88
150 163 54 107 65 219 30 300 l-13 31 -62 -25 -62 -26 6 -66 c10 -114 -45
-206 -138 -231 -23 -6 -43 -9 -46 -6 -3 3 29 101 71 218 42 117 76 218 76 224
0 35 -164 63 -242 41z m47 -279 c-24 -68 -47 -134 -52 -146 l-9 -24 -32 27
c-66 55 -63 157 8 227 33 33 44 38 83 38 l46 0 -44 -122z"/>
<path d="M8898 6487 c-52 -11 -55 -18 -39 -74 11 -37 24 -32 -175 -78 -138
-32 -192 -64 -224 -130 -19 -38 -22 -58 -18 -109 5 -63 35 -145 64 -178 15
-16 19 -15 70 19 30 20 54 38 54 40 0 2 -7 15 -16 28 -21 32 -22 91 -2 111 23
23 290 87 299 72 4 -6 13 -40 19 -75 7 -35 17 -63 24 -63 15 0 117 28 123 33
2 3 -3 35 -12 72 -8 37 -13 70 -10 74 2 5 32 14 65 21 33 7 63 17 66 22 3 5
-2 44 -12 88 -19 90 -15 88 -109 66 -33 -8 -60 -14 -61 -13 -1 1 -5 20 -11 42
-10 45 -20 49 -95 32z"/>
<path d="M2525 6198 c-3 -18 -6 -57 -8 -87 l-2 -54 197 -111 c108 -61 191
-114 185 -117 -7 -3 -105 -32 -219 -64 -234 -65 -211 -46 -224 -179 l-7 -68
24 8 c13 4 158 47 322 95 165 48 303 91 307 95 5 5 10 49 12 98 l3 90 -289
163 c-158 90 -290 163 -292 163 -2 0 -6 -15 -9 -32z"/>
<path d="M8740 5880 c-216 -5 -235 -6 -234 -22 0 -10 1 -52 2 -93 l2 -75 168
6 c189 7 233 0 277 -46 36 -37 46 -119 21 -167 -25 -50 -74 -61 -279 -66 -97
-2 -179 -6 -182 -8 -2 -3 -2 -45 2 -93 l6 -89 206 7 c113 4 224 12 245 18 77
20 146 85 166 158 24 84 -2 234 -47 271 -14 12 -13 14 8 20 13 4 81 7 152 8
l127 1 0 74 c0 41 -3 81 -6 90 -7 17 -102 18 -634 6z"/>
<path d="M2710 5464 c-164 -44 -257 -191 -230 -362 20 -124 76 -204 177 -254
57 -28 78 -33 138 -33 135 1 237 61 292 173 26 52 28 66 28 172 0 103 -3 121
-26 170 -29 62 -82 124 -101 118 -6 -2 -30 -25 -52 -51 l-39 -47 21 -23 c54
-57 72 -186 36 -248 -21 -36 -70 -76 -80 -66 -4 3 -17 100 -31 214 -13 114
-26 218 -28 231 -6 26 -25 27 -105 6z m28 -261 c26 -205 26 -213 8 -213 -9 0
-29 6 -44 14 -97 50 -117 180 -40 255 53 52 64 44 76 -56z"/>
<path d="M8599 5106 c-131 -47 -203 -217 -150 -355 l18 -49 -30 9 c-17 5 -33
7 -35 4 -7 -7 -42 -158 -37 -163 7 -7 600 -150 606 -147 9 6 43 165 36 171 -3
4 -79 24 -167 45 -88 21 -174 46 -191 54 -115 60 -78 255 48 255 15 0 103 -18
196 -41 92 -23 173 -39 180 -36 16 6 51 157 40 168 -14 13 -397 99 -438 99
-22 -1 -56 -7 -76 -14z"/>
<path d="M2841 4739 c-66 -13 -164 -62 -214 -108 -106 -98 -147 -266 -102
-422 17 -59 161 -402 171 -406 8 -3 712 282 744 302 9 6 -84 243 -150 380 -63
132 -160 217 -285 249 -65 17 -97 18 -164 5z m163 -191 c71 -21 135 -96 185
-216 23 -57 40 -106 38 -109 -5 -4 -456 -193 -462 -193 -1 0 -21 46 -45 101
-66 161 -64 251 7 330 73 80 182 115 277 87z"/>
<path d="M8317 4430 c-93 -98 -140 -197 -144 -305 -3 -69 -1 -85 19 -120 34
-57 89 -87 156 -82 68 5 88 20 188 143 81 100 103 116 129 94 40 -33 -3 -150
-82 -226 l-45 -44 41 -55 c49 -64 55 -64 120 12 96 111 151 277 121 367 -33
102 -151 157 -238 112 -31 -17 -86 -73 -127 -131 -41 -57 -87 -105 -101 -105
-20 0 -44 29 -44 53 0 44 51 129 113 192 l64 63 -39 51 c-21 28 -45 51 -52 51
-8 0 -43 -31 -79 -70z"/>
<path d="M8006 3923 c-26 -36 -49 -70 -51 -77 -3 -6 12 -23 33 -37 20 -14 134
-95 253 -181 l217 -156 47 65 c25 36 48 70 51 77 3 9 -81 72 -451 338 l-52 37
-47 -66z"/>
<path d="M3580 3721 c-97 -20 -209 -112 -253 -208 -33 -73 -30 -181 6 -252 51
-96 152 -171 231 -171 15 0 -6 -27 -87 -108 l-107 -107 65 -65 65 -65 308 308
307 307 -62 62 -62 62 -24 -22 -24 -23 -7 43 c-24 148 -206 271 -356 239z
m173 -204 c74 -56 87 -154 30 -225 -52 -64 -77 -77 -149 -77 -62 0 -65 1 -105
42 -37 36 -43 48 -47 96 -5 60 9 96 55 139 69 65 151 75 216 25z"/>
<path d="M7835 3687 c-93 -45 -165 -137 -165 -211 0 -40 -9 -46 -28 -16 -7 11
-18 20 -25 20 -15 0 -117 -101 -117 -116 0 -6 71 -81 158 -166 147 -146 162
-157 217 -173 49 -15 67 -16 109 -6 102 24 219 127 275 244 46 95 46 98 -24
124 -33 12 -62 22 -65 22 -3 1 -13 -21 -22 -47 -47 -133 -169 -210 -239 -153
l-24 19 85 89 c125 129 152 201 110 288 -45 93 -149 128 -245 82z m81 -155 c6
-4 16 -17 23 -29 17 -33 -6 -77 -73 -143 l-57 -55 -30 33 c-32 36 -36 66 -15
115 27 65 109 108 152 79z"/>
<path d="M8633 3535 c-40 -17 -73 -69 -73 -113 0 -41 55 -102 92 -102 55 0
118 66 118 124 0 74 -70 120 -137 91z"/>
<path d="M7396 3285 c-125 -35 -265 -135 -306 -221 -58 -119 19 -254 145 -254
20 0 84 18 142 40 121 46 157 50 173 19 9 -16 8 -26 -5 -45 -35 -54 -152 -114
-221 -114 -20 0 -22 -4 -18 -37 14 -105 13 -103 43 -103 72 0 205 65 283 138
84 78 109 171 69 250 -34 65 -64 86 -135 90 -56 4 -75 -1 -166 -37 -107 -43
-138 -49 -158 -29 -18 18 -15 34 17 71 38 42 121 83 203 99 l64 12 -7 50 c-4
28 -8 59 -8 69 -1 21 -42 22 -115 2z"/>
<path d="M4165 3250 c-44 -6 -43 -2 -25 -92 l11 -57 34 6 c50 8 131 -23 176
-68 41 -41 65 -103 55 -142 -6 -25 -8 -24 -207 94 -111 66 -207 118 -213 116
-6 -3 -25 -31 -41 -63 -26 -52 -30 -70 -30 -144 0 -75 3 -91 29 -138 86 -155
287 -229 436 -161 79 37 125 81 162 157 29 58 33 76 32 142 -1 94 -27 154
-101 228 -87 87 -214 136 -318 122z m61 -392 c68 -40 122 -77 121 -82 -7 -20
-55 -48 -93 -52 -50 -7 -120 28 -151 75 -29 43 -32 131 -5 131 2 0 60 -33 128
-72z"/>
<path d="M6733 2961 c-60 -20 -131 -65 -140 -87 -4 -10 10 -32 39 -61 l45 -45
38 26 c44 30 62 32 94 10 24 -17 30 -30 91 -186 l38 -97 -73 -26 -74 -27 21
-57 c11 -31 24 -60 28 -65 5 -5 38 3 76 17 37 15 70 25 73 23 3 -2 17 -34 31
-70 19 -50 28 -65 40 -60 8 3 45 17 83 31 37 14 67 29 67 34 0 5 -11 37 -25
70 -13 34 -23 65 -20 68 2 4 22 13 44 21 23 7 41 14 41 15 0 13 -51 120 -58
123 -6 2 -27 -4 -47 -12 l-36 -15 -18 42 c-10 23 -35 87 -56 142 -71 184 -157
237 -302 186z"/>
<path d="M4702 2597 c-100 -177 -196 -345 -212 -374 l-30 -52 58 -12 c31 -6
73 -12 92 -13 l34 -1 147 259 c139 243 148 256 153 225 4 -19 19 -153 36 -298
17 -157 34 -267 41 -271 14 -9 158 -34 163 -29 2 2 46 76 96 164 164 283 202
347 205 343 2 -1 18 -133 35 -293 18 -159 34 -292 36 -294 4 -4 187 -42 189
-39 1 2 -21 195 -49 430 l-50 426 -101 20 c-55 11 -100 19 -101 19 -105 -187
-287 -497 -289 -495 -2 2 -18 129 -35 283 -18 154 -34 282 -36 284 -3 4 -171
40 -189 41 -5 0 -92 -145 -193 -323z"/>
<path d="M6140 2812 c-78 -38 -87 -149 -17 -193 47 -30 112 -21 149 20 49 55
31 143 -36 175 -43 20 -53 20 -96 -2z"/>
</g>
</svg>
