<?xml version="1.0" standalone="no"?>
<!DOCTYPE svg PUBLIC "-//W3C//DTD SVG 20010904//EN"
 "http://www.w3.org/TR/2001/REC-SVG-20010904/DTD/svg10.dtd">
<svg version="1.0" xmlns="http://www.w3.org/2000/svg"
 width="500.000000pt" height="500.000000pt" viewBox="0 0 500.000000 500.000000"
 preserveAspectRatio="xMidYMid meet">

<g transform="translate(0.000000,500.000000) scale(0.100000,-0.100000)"
fill="#000000" stroke="none">
<path d="M2494 4152 c-12 -2 -30 -12 -40 -23 -21 -23 -34 -24 -34 -3 0 11 -5
14 -16 10 -9 -3 -25 -6 -36 -6 -19 0 -20 -4 -15 -52 3 -29 13 -95 22 -145 17
-89 19 -93 44 -93 50 0 54 9 41 95 -15 98 -9 122 35 141 29 12 35 20 35 44 0
32 -6 38 -36 32z"/>
<path d="M3097 4002 l-148 -148 42 -13 c40 -12 43 -11 73 17 l31 30 85 -32 85
-32 5 -48 c5 -46 7 -50 43 -62 l38 -13 -6 137 c-3 75 -8 170 -11 210 -6 72 -7
74 -40 88 -18 8 -37 14 -41 14 -5 0 -75 -67 -156 -148z m159 -99 c-6 -6 -106
29 -106 36 0 4 24 31 53 61 l52 55 3 -74 c2 -40 1 -76 -2 -78z"/>
<path d="M2095 4047 c-136 -76 -88 -277 67 -277 26 0 59 5 75 11 27 10 93 66
93 79 0 4 -12 12 -26 19 -22 10 -29 8 -56 -14 -34 -29 -107 -35 -128 -10 -13
16 -11 17 95 55 65 23 105 42 105 49 0 3 -9 21 -20 39 -43 71 -130 91 -205 49z
m106 -47 c10 -6 19 -17 19 -24 0 -15 -124 -68 -128 -55 -8 22 10 59 36 73 33
18 47 19 73 6z"/>
<path d="M3512 3932 c-23 -37 -69 -107 -101 -157 -33 -49 -57 -93 -55 -97 10
-16 66 -40 74 -31 8 9 143 217 178 275 l22 36 -33 21 c-19 12 -36 21 -38 20
-2 0 -23 -30 -47 -67z"/>
<path d="M2734 3935 c-15 -23 -15 -27 0 -50 30 -46 96 -26 96 29 0 46 -69 61
-96 21z"/>
<path d="M1804 3896 c-17 -7 -41 -30 -53 -49 -14 -23 -27 -34 -39 -31 -23 5
-66 -32 -56 -48 4 -7 31 -44 59 -83 28 -38 75 -105 104 -147 29 -43 57 -78 63
-78 5 0 23 10 40 21 29 21 29 22 11 43 -10 11 -28 35 -40 52 l-22 32 35 6 c47
9 101 59 115 107 15 48 -6 111 -51 154 -35 34 -115 44 -166 21z m107 -85 c40
-40 42 -80 6 -118 -60 -65 -178 38 -124 108 35 45 79 49 118 10z"/>
<path d="M3848 3738 c-14 -13 -42 -36 -63 -53 -74 -59 -191 -160 -195 -169 -5
-11 171 -225 186 -225 6 -1 19 8 29 19 16 18 16 22 4 38 -9 9 -39 45 -68 80
l-54 63 33 29 c19 17 37 30 41 30 3 0 19 -17 35 -37 16 -21 39 -49 51 -63 13
-14 23 -29 23 -34 0 -5 11 1 25 14 14 13 25 26 25 30 0 3 -24 34 -54 69 l-53
64 34 30 c23 20 37 27 42 19 6 -10 45 -58 97 -119 22 -25 22 -25 48 -7 14 11
25 21 26 24 0 4 -163 196 -184 217 -2 2 -14 -7 -28 -19z"/>
<path d="M1520 3640 c-57 -34 -85 -84 -85 -149 0 -70 29 -113 91 -137 95 -36
183 17 215 130 13 44 -5 96 -45 136 -46 44 -121 52 -176 20z m95 -65 c57 -28
71 -90 30 -130 -45 -45 -110 -25 -135 41 -16 40 21 95 68 103 2 1 19 -6 37
-14z"/>
<path d="M1213 3419 l-20 -37 101 -56 c55 -31 135 -76 176 -100 l75 -44 24 36
c13 20 20 37 15 39 -5 2 -86 47 -180 101 l-171 98 -20 -37z"/>
<path d="M3940 3339 c-58 -28 -115 -55 -127 -60 -27 -10 -28 -20 -8 -59 l15
-29 87 39 c97 43 117 42 146 -8 27 -46 10 -67 -88 -113 l-83 -39 15 -39 15
-39 87 40 c47 22 98 51 113 65 53 51 45 130 -20 182 -28 24 -32 31 -20 36 15
6 14 10 -4 41 -11 19 -21 34 -21 33 -1 0 -49 -23 -107 -50z"/>
<path d="M1286 3210 c-89 -27 -133 -157 -81 -237 44 -67 156 -86 216 -36 41
35 69 96 69 155 0 54 -8 63 -45 46 -21 -9 -25 -17 -20 -35 10 -42 -41 -123
-77 -123 -16 0 -6 47 27 130 18 47 30 88 26 91 -11 12 -86 18 -115 9z m47 -67
c8 -13 -45 -134 -57 -130 -22 7 -35 48 -24 78 14 42 67 75 81 52z"/>
<path d="M4163 3043 c-16 -3 -23 -11 -23 -28 0 -25 -26 -37 -113 -51 -73 -12
-105 -82 -72 -160 14 -35 14 -35 44 -19 28 14 29 17 19 40 -16 35 4 54 78 71
61 14 74 9 74 -28 0 -23 14 -30 44 -22 22 5 25 10 20 33 -4 14 -7 30 -8 35 0
5 14 13 33 18 31 8 33 12 27 40 -3 17 -6 35 -6 40 0 6 -16 7 -40 3 -36 -6 -40
-5 -40 14 0 12 -3 20 -7 20 -5 -1 -18 -4 -30 -6z"/>
<path d="M1130 2903 c0 -10 -3 -27 -6 -38 -4 -16 7 -26 58 -54 35 -19 78 -45
97 -57 l34 -23 -44 -11 c-165 -43 -163 -42 -170 -88 -6 -48 -16 -48 136 -2 50
15 105 31 122 35 39 8 39 8 48 62 6 40 5 44 -19 52 -14 6 -42 21 -63 34 -21
13 -73 43 -115 66 -67 36 -78 40 -78 24z"/>
<path d="M4038 2753 l-68 -4 0 -39 0 -40 95 0 c82 0 98 -3 115 -20 21 -21 26
-65 11 -89 -10 -16 -85 -29 -168 -30 l-53 -1 0 -42 0 -41 115 6 c63 3 124 11
135 17 47 25 68 126 36 175 l-16 24 70 7 70 7 0 38 0 39 -137 -2 c-76 -1 -168
-3 -205 -5z"/>
<path d="M1185 2544 c-73 -37 -100 -147 -54 -221 23 -38 84 -73 125 -73 38 0
109 36 127 64 38 57 33 166 -9 211 l-25 27 -19 -23 c-24 -27 -24 -28 -4 -50
21 -24 21 -95 -1 -119 -34 -38 -39 -25 -51 118 -6 81 -7 82 -33 81 -14 0 -40
-7 -56 -15z m50 -146 c8 -74 3 -80 -39 -47 -33 26 -36 79 -5 110 12 12 25 17
29 13 5 -5 11 -39 15 -76z"/>
<path d="M3983 2366 c-37 -31 -57 -93 -43 -131 13 -34 13 -32 -9 -38 -12 -3
-20 -16 -23 -37 -5 -37 1 -40 97 -60 33 -6 82 -18 109 -26 65 -18 74 -18 80 6
18 62 23 57 -66 76 -94 20 -131 47 -126 91 2 14 14 34 28 44 24 17 28 17 110
-1 47 -11 88 -20 92 -20 6 0 30 72 25 75 -1 1 -41 12 -89 23 -114 29 -149 28
-185 -2z"/>
<path d="M1206 2180 c-54 -35 -86 -91 -86 -155 0 -24 17 -81 43 -145 36 -87
46 -104 63 -102 17 4 78 28 272 110 45 19 62 31 58 42 -40 124 -91 217 -140
252 -33 23 -49 28 -101 28 -51 0 -69 -5 -109 -30z m186 -77 c22 -20 68 -105
68 -125 0 -11 -190 -99 -213 -98 -14 0 -47 84 -47 122 0 56 15 85 57 108 45
24 104 21 135 -7z"/>
<path d="M3883 2068 c-39 -41 -72 -112 -73 -156 0 -44 38 -82 81 -82 26 0 42
11 90 62 47 52 59 60 64 45 11 -26 -3 -69 -32 -99 l-25 -27 19 -25 20 -25 31
32 c34 35 62 102 62 148 0 15 -11 40 -23 55 -34 39 -81 37 -116 -3 -14 -16
-39 -44 -54 -62 -15 -17 -32 -29 -37 -26 -26 16 1 89 47 125 l27 21 -25 25
-25 24 -31 -32z"/>
<path d="M3731 1824 c-12 -15 -21 -30 -21 -34 0 -6 40 -35 193 -144 l41 -28
23 28 c13 16 23 31 23 34 0 3 -28 26 -62 50 -34 25 -84 62 -112 83 -28 20 -54
37 -58 37 -3 0 -16 -12 -27 -26z"/>
<path d="M1594 1716 c-17 -8 -44 -31 -60 -52 -59 -77 -26 -195 62 -224 l36
-12 -46 -47 c-25 -26 -46 -52 -46 -59 0 -6 11 -19 25 -28 30 -20 14 -32 196
147 l119 116 -29 27 c-15 15 -34 26 -41 24 -7 -2 -16 10 -21 26 -22 77 -115
116 -195 82z m123 -88 c41 -38 24 -107 -34 -137 -42 -21 -103 24 -103 77 0 33
52 82 86 82 15 0 38 -10 51 -22z"/>
<path d="M3644 1710 c-26 -10 -62 -55 -70 -86 -3 -12 -11 -21 -17 -18 -7 2
-25 -6 -40 -19 l-28 -22 73 -77 c78 -80 105 -94 165 -85 45 8 105 63 126 117
l15 38 -29 13 c-16 6 -31 10 -32 8 -1 -2 -10 -21 -19 -41 -21 -46 -69 -74 -99
-58 -19 11 -17 14 31 66 63 69 69 111 24 152 -26 23 -63 27 -100 12z m56 -80
c9 -16 4 -26 -26 -60 -29 -32 -39 -38 -50 -29 -21 17 -17 60 8 86 26 28 54 30
68 3z"/>
<path d="M4022 1634 c-52 -36 -10 -114 44 -79 30 20 33 69 5 85 -25 13 -22 13
-49 -6z"/>
<path d="M3405 1505 c-27 -13 -57 -30 -65 -37 -56 -46 -66 -114 -24 -147 34
-26 58 -26 122 0 54 22 82 20 82 -6 0 -18 -53 -53 -92 -62 -16 -3 -28 -11 -28
-18 0 -27 13 -45 31 -45 33 0 116 48 138 79 27 38 28 94 1 121 -26 26 -65 25
-136 -1 -41 -15 -59 -18 -67 -10 -17 17 38 67 89 80 43 11 51 22 38 55 -8 22
-31 20 -89 -9z"/>
<path d="M1897 1502 c-3 -4 -3 -19 0 -35 4 -21 11 -27 32 -27 48 0 101 -46
101 -88 0 -30 -3 -28 -115 38 l-85 50 -17 -27 c-43 -66 -11 -163 67 -203 69
-35 136 -23 189 34 37 39 41 128 9 176 -35 53 -164 111 -181 82z m59 -192 c45
-28 45 -38 1 -53 -41 -15 -109 48 -93 88 6 18 14 15 92 -35z"/>
<path d="M3121 1365 c-57 -25 -64 -35 -45 -57 13 -13 26 -17 48 -13 41 7 51
-1 75 -63 27 -68 27 -71 -9 -83 -33 -12 -37 -25 -17 -53 11 -15 17 -16 35 -7
32 17 42 14 53 -19 12 -34 14 -34 58 -19 22 8 30 16 27 26 -18 46 -17 61 3 68
18 5 19 9 9 33 -7 15 -13 28 -14 30 -1 2 -11 -1 -22 -7 -17 -9 -21 -6 -32 22
-53 142 -93 175 -169 142z"/>
<path d="M2156 1179 c-53 -93 -96 -173 -96 -178 0 -8 69 -26 74 -19 4 5 57
101 83 148 13 25 32 56 42 70 l19 24 6 -34 c2 -19 10 -82 16 -140 7 -58 12
-106 13 -106 11 -9 87 -13 87 -6 0 19 134 237 137 222 1 -8 9 -71 17 -139 9
-68 17 -125 18 -126 2 -2 20 -6 41 -10 37 -7 37 -7 37 26 0 32 -40 362 -44
366 -2 2 -23 6 -48 9 l-45 6 -62 -111 c-35 -61 -66 -111 -70 -111 -7 0 -31
172 -31 221 0 33 -14 45 -62 52 l-36 5 -96 -169z"/>
<path d="M2826 1279 c-16 -23 -12 -47 12 -66 25 -20 50 -15 68 12 14 21 15 31
6 50 -15 33 -64 34 -86 4z"/>
</g>
</svg>
