<?xml version="1.0" standalone="no"?>
<!DOCTYPE svg PUBLIC "-//W3C//DTD SVG 20010904//EN"
 "http://www.w3.org/TR/2001/REC-SVG-20010904/DTD/svg10.dtd">
<svg version="1.0" xmlns="http://www.w3.org/2000/svg"
 width="864.000000pt" height="864.000000pt" viewBox="0 0 864.000000 864.000000"
 preserveAspectRatio="xMidYMid meet">

<g transform="translate(0.000000,864.000000) scale(0.100000,-0.100000)"
fill="#000000" stroke="none">
<path d="M4295 7156 c-27 -13 -58 -33 -69 -44 -21 -24 -36 -20 -36 10 0 16 -5
19 -22 15 -13 -3 -44 -9 -70 -12 -27 -4 -48 -10 -48 -14 0 -12 82 -496 85
-499 3 -3 138 18 143 23 2 2 -6 57 -17 123 -30 171 -28 197 12 237 20 20 48
36 71 41 l38 7 -7 55 c-7 60 -14 82 -24 82 -3 0 -28 -11 -56 -24z"/>
<path d="M5347 6906 c-142 -140 -254 -256 -250 -259 5 -3 39 -17 75 -31 l66
-25 53 56 53 56 50 -18 c28 -10 92 -35 141 -55 100 -40 101 -43 104 -145 l1
-50 71 -28 c40 -15 73 -26 75 -24 4 4 -23 576 -32 665 l-6 63 -46 20 c-93 40
-71 55 -355 -225z m281 -58 l-3 -126 -93 35 c-51 20 -91 39 -90 43 9 22 174
188 181 181 4 -4 6 -64 5 -133z"/>
<path d="M3667 7006 c-81 -29 -149 -97 -175 -175 -39 -114 24 -262 134 -317
63 -31 182 -26 262 10 65 30 142 103 142 135 0 9 -20 25 -49 37 l-49 22 -21
-29 c-48 -65 -164 -93 -218 -53 -15 11 -28 24 -30 30 -1 5 75 39 170 75 118
45 173 71 175 82 5 27 -40 107 -80 142 -21 17 -55 37 -77 43 -51 16 -137 14
-184 -2z m144 -119 c19 -12 34 -29 34 -36 0 -12 -182 -89 -212 -91 -21 0 -15
65 9 95 43 55 114 69 169 32z"/>
<path d="M5960 6629 c-105 -160 -179 -284 -173 -287 109 -72 114 -75 128 -61
14 14 323 489 344 527 11 21 -1 32 -105 95 -7 4 -80 -97 -194 -274z"/>
<path d="M4736 6811 c-40 -44 -37 -109 7 -143 84 -66 198 62 122 137 -31 32
-103 35 -129 6z"/>
<path d="M3179 6747 c-25 -7 -59 -23 -76 -35 -44 -31 -93 -90 -93 -111 0 -27
-11 -33 -31 -15 -19 17 -27 13 -107 -47 l-22 -17 88 -124 c48 -67 137 -192
197 -276 59 -85 114 -156 121 -159 13 -5 114 63 114 78 0 5 -27 46 -60 92 -33
47 -60 87 -60 91 0 3 15 6 33 6 44 0 130 44 163 83 48 57 67 113 62 182 -14
171 -175 294 -329 252z m84 -141 c42 -18 76 -55 92 -102 23 -67 -13 -139 -80
-162 -48 -16 -86 -8 -126 25 -85 72 -78 187 16 233 48 24 56 24 98 6z"/>
<path d="M6538 6369 c-79 -66 -191 -162 -250 -212 -60 -49 -108 -93 -108 -97
0 -9 318 -384 328 -388 5 -1 28 15 52 36 l43 38 -104 123 c-57 67 -110 130
-116 140 -11 15 -5 23 43 64 31 26 59 47 63 47 3 -1 48 -53 100 -115 52 -63
97 -115 100 -115 3 0 25 17 49 38 l42 37 -95 113 c-52 61 -95 118 -95 125 1
11 78 78 99 85 5 2 58 -56 117 -128 60 -71 111 -130 114 -130 3 0 25 18 50 39
l44 39 -63 73 c-34 41 -106 127 -159 191 -54 64 -100 117 -104 117 -4 1 -71
-53 -150 -120z"/>
<path d="M2673 6304 c-61 -22 -127 -85 -162 -156 -134 -267 186 -511 408 -312
76 69 105 131 106 224 0 58 -5 84 -22 115 -64 120 -202 174 -330 129z m153
-153 c95 -70 83 -207 -21 -241 -101 -33 -217 77 -185 174 6 19 27 49 47 67 32
28 42 31 83 27 26 -3 59 -14 76 -27z"/>
<path d="M2103 5901 c-25 -45 -30 -61 -20 -68 46 -37 600 -344 606 -337 26 29
65 114 56 123 -17 17 -586 341 -598 341 -7 0 -27 -27 -44 -59z"/>
<path d="M6765 5753 c-121 -57 -224 -108 -229 -113 -11 -11 41 -130 56 -130 5
0 66 27 136 60 81 38 141 60 164 60 59 0 118 -63 118 -126 0 -39 -48 -77 -175
-138 -167 -79 -153 -62 -117 -139 l31 -66 138 65 c175 83 198 98 234 147 24
33 29 50 29 99 0 92 -35 158 -110 209 l-39 26 24 11 24 11 -28 62 c-16 33 -31
62 -33 64 -2 1 -102 -45 -223 -102z"/>
<path d="M2223 5544 c-89 -32 -160 -133 -170 -244 -11 -113 40 -204 142 -255
76 -38 166 -41 231 -7 96 49 167 173 167 292 1 61 -14 110 -32 110 -5 0 -29
-9 -54 -20 -45 -20 -45 -20 -36 -58 12 -50 -12 -129 -49 -165 -30 -29 -88 -51
-97 -37 -3 5 22 83 55 175 33 91 60 172 60 180 0 17 -89 45 -139 44 -20 0 -55
-7 -78 -15z m54 -239 c-23 -63 -45 -115 -49 -115 -5 0 -20 12 -33 26 -19 20
-25 38 -25 71 0 80 44 133 111 133 l36 0 -40 -115z"/>
<path d="M7172 5258 c-43 -9 -43 -10 -40 -50 l3 -41 -125 -31 c-145 -36 -181
-57 -206 -122 -15 -39 -16 -54 -6 -105 10 -57 45 -129 61 -129 5 0 27 14 50
30 40 29 41 32 26 53 -20 29 -19 70 3 90 13 12 207 67 236 67 3 0 10 -25 16
-55 6 -30 15 -57 20 -60 5 -3 30 0 56 6 l46 12 -6 41 c-3 23 -8 51 -12 63 -5
19 0 22 51 34 31 7 58 15 60 18 2 3 -4 37 -12 75 l-16 68 -31 -7 c-96 -20 -94
-21 -101 19 -8 39 -8 39 -73 24z"/>
<path d="M1965 5037 c-3 -6 -6 -39 -7 -72 l-3 -59 159 -90 c102 -58 153 -92
145 -96 -8 -4 -84 -27 -169 -50 -85 -24 -160 -48 -166 -54 -7 -6 -15 -42 -19
-79 -6 -64 -5 -69 12 -64 355 102 482 140 501 147 13 6 22 18 22 32 0 13 3 46
6 74 l6 51 -138 78 c-77 43 -185 104 -242 136 -68 39 -104 54 -107 46z"/>
<path d="M7043 4763 l-193 -3 0 -75 0 -75 161 0 161 0 34 -34 c30 -30 34 -40
34 -84 0 -74 -19 -92 -110 -102 -41 -5 -121 -9 -177 -10 l-103 0 0 -52 c0 -29
3 -64 7 -77 l6 -24 174 7 c176 7 217 15 265 48 69 48 91 190 43 284 -14 27
-25 50 -25 51 0 1 53 4 118 5 l117 3 3 73 3 72 -163 -2 c-90 -2 -250 -4 -355
-5z"/>
<path d="M2110 4421 c-76 -23 -148 -89 -171 -157 -7 -22 -13 -68 -13 -104 3
-196 173 -317 359 -253 63 21 127 85 148 148 19 55 22 161 7 217 -13 46 -70
132 -90 135 -8 1 -30 -16 -48 -37 l-34 -39 28 -37 c36 -46 46 -141 20 -189
-19 -35 -54 -61 -66 -48 -4 4 -15 73 -24 153 -26 233 -23 220 -59 219 -18 0
-43 -4 -57 -8z m20 -144 c0 -1 7 -56 15 -122 8 -65 14 -120 12 -121 -9 -9 -60
13 -83 37 -21 22 -28 41 -32 84 -4 52 -3 56 31 90 29 29 57 45 57 32z"/>
<path d="M6928 4131 c-71 -23 -117 -82 -138 -176 -10 -43 -5 -85 17 -141 4
-12 0 -14 -20 -9 -23 6 -27 3 -36 -32 -27 -100 -28 -98 26 -111 309 -76 418
-102 434 -102 18 0 26 20 44 106 l6 32 -137 33 c-75 19 -150 42 -166 52 -40
24 -59 73 -48 123 19 83 70 91 262 44 66 -16 126 -30 133 -30 12 0 50 128 41
137 -2 3 -64 20 -138 39 -145 37 -238 48 -280 35z"/>
<path d="M2223 3830 c-106 -22 -199 -89 -243 -177 -22 -42 -25 -61 -25 -148 0
-100 0 -100 64 -258 36 -87 70 -165 76 -174 9 -12 53 3 305 107 162 67 300
125 307 129 12 6 -47 162 -117 309 -75 157 -222 241 -367 212z m184 -186 c40
-32 77 -93 112 -182 l21 -53 -57 -26 c-100 -44 -325 -134 -328 -131 -12 15
-67 172 -72 204 -16 121 96 230 229 221 46 -3 65 -9 95 -33z"/>
<path d="M6702 3588 c-29 -29 -69 -84 -89 -123 -34 -63 -38 -77 -38 -147 0
-76 1 -78 36 -114 28 -28 47 -37 81 -41 63 -7 97 14 169 105 34 42 67 80 73
84 23 15 46 8 52 -17 10 -39 -21 -107 -70 -156 l-44 -44 31 -42 c17 -24 36
-43 43 -43 21 0 92 89 126 157 31 64 46 141 34 187 -10 42 -64 95 -108 106
-60 17 -119 -16 -183 -102 -68 -92 -79 -101 -104 -93 -49 15 -2 138 80 209
l42 35 -37 46 c-21 25 -39 45 -40 45 -2 0 -26 -24 -54 -52z"/>
<path d="M6438 3163 c-19 -27 -37 -53 -41 -59 -4 -6 14 -25 41 -44 26 -19 117
-85 203 -147 86 -62 160 -113 165 -113 8 1 84 103 84 114 0 4 -60 49 -310 228
-52 37 -97 68 -101 68 -4 0 -22 -21 -41 -47z"/>
<path d="M2765 2977 c-57 -27 -118 -91 -146 -151 -58 -127 23 -299 157 -336
l46 -13 -81 -81 c-45 -45 -81 -86 -81 -92 0 -5 21 -31 48 -57 l47 -47 253 253
252 252 -50 50 c-48 47 -50 48 -69 31 -18 -17 -19 -16 -26 24 -9 53 -58 117
-119 155 -68 41 -159 46 -231 12z m181 -133 c50 -24 78 -75 71 -131 -4 -36
-13 -54 -45 -86 -33 -33 -48 -40 -89 -44 -152 -13 -194 183 -55 257 46 24 74
25 118 4z"/>
<path d="M6295 2966 c-77 -35 -135 -110 -135 -173 0 -26 0 -26 -20 -8 -21 19
-22 18 -70 -31 l-49 -49 118 -122 c127 -131 176 -163 244 -163 90 0 205 87
261 198 37 74 35 87 -21 106 -58 20 -63 20 -63 1 0 -26 -30 -78 -68 -117 -43
-46 -90 -58 -128 -33 l-25 16 71 76 c40 41 78 90 86 109 32 78 6 157 -66 195
-46 25 -74 24 -135 -5z m80 -136 c26 -28 13 -60 -46 -120 l-52 -51 -23 22
c-40 38 -29 101 24 146 33 28 73 29 97 3z"/>
<path d="M6919 2819 c-65 -70 -4 -174 81 -139 61 25 83 107 40 150 -32 32 -86
27 -121 -11z"/>
<path d="M5899 2626 c-116 -47 -199 -122 -219 -196 -15 -55 -5 -93 34 -134 48
-51 85 -54 192 -16 49 18 105 33 124 34 29 1 36 -3 38 -22 2 -13 -5 -33 -15
-44 -24 -27 -100 -65 -147 -74 l-38 -7 4 -53 c3 -30 7 -57 10 -60 12 -12 132
30 186 66 145 93 180 217 87 299 -49 43 -98 41 -220 -5 -52 -20 -101 -34 -110
-31 -8 4 -15 17 -15 31 0 47 92 102 201 121 36 7 37 7 32 48 -3 23 -6 48 -9
55 -6 19 -74 14 -135 -12z"/>
<path d="M3287 2614 c-14 -5 -16 -12 -11 -42 11 -62 22 -82 39 -76 25 10 100
-16 139 -48 37 -30 64 -93 53 -123 -8 -19 -1 -23 -195 93 -156 92 -145 91
-182 21 -64 -122 -8 -276 126 -344 140 -71 285 -28 359 106 25 46 30 65 30
124 -1 81 -21 129 -82 189 -68 68 -209 119 -276 100z m70 -325 c57 -34 103
-63 103 -65 0 -12 -69 -44 -93 -44 -45 0 -102 35 -121 74 -22 46 -21 96 2 96
3 0 52 -27 109 -61z"/>
<path d="M5400 2381 c-40 -13 -84 -37 -104 -59 -18 -20 -17 -22 15 -61 18 -23
34 -41 37 -41 2 0 15 9 29 20 29 23 61 26 86 8 18 -14 99 -216 92 -229 -3 -4
-27 -15 -55 -25 -27 -10 -50 -23 -50 -28 0 -19 33 -96 41 -96 5 0 31 9 59 20
28 11 52 20 55 20 2 0 11 -23 20 -51 10 -28 22 -52 29 -55 7 -3 30 3 52 12 21
9 49 20 61 25 l23 8 -20 51 c-26 65 -26 65 10 80 34 14 36 24 14 80 -14 34
-20 40 -38 34 -51 -17 -55 -13 -101 99 -51 128 -66 152 -108 177 -33 21 -99
25 -147 11z"/>
<path d="M3878 2318 c-8 -13 -86 -148 -172 -302 -115 -202 -154 -281 -145
-286 7 -5 32 -11 57 -15 24 -4 50 -9 57 -12 9 -3 55 69 131 204 132 233 122
218 129 212 2 -3 16 -110 31 -239 14 -129 27 -236 28 -237 1 -1 33 -9 70 -17
l68 -14 19 32 c11 17 65 111 121 208 57 97 105 175 108 172 3 -3 17 -109 31
-235 15 -126 29 -232 32 -235 8 -8 140 -34 146 -29 9 10 -74 678 -85 690 -11
11 -152 41 -158 34 -2 -2 -54 -93 -116 -202 -62 -109 -115 -196 -117 -193 -3
3 -17 107 -32 232 l-26 228 -65 12 c-90 17 -96 17 -112 -8z"/>
<path d="M4914 2260 c-55 -22 -71 -99 -30 -147 19 -22 32 -28 65 -28 88 0 127
99 62 157 -32 29 -59 34 -97 18z"/>
</g>
</svg>
